G75*
G70*
%OFA0B0*%
%FSLAX24Y24*%
%IPPOS*%
%LPD*%
%AMOC8*
5,1,8,0,0,1.08239X$1,22.5*
%
%ADD10C,0.0600*%
%ADD11C,0.0600*%
%ADD12OC8,0.0630*%
%ADD13C,0.0160*%
%ADD14R,0.0396X0.0396*%
D10*
X012386Y001849D02*
X012386Y002449D01*
X013386Y002449D02*
X013386Y001849D01*
X014386Y001849D02*
X014386Y002449D01*
X015386Y002449D02*
X015386Y001849D01*
X007118Y023108D02*
X007118Y023708D01*
X006118Y023708D02*
X006118Y023108D01*
X005118Y023108D02*
X005118Y023708D01*
X004118Y023708D02*
X004118Y023108D01*
D11*
X011500Y015711D03*
X012500Y015711D03*
X013500Y015711D03*
X014500Y015711D03*
X015500Y015711D03*
X016500Y015711D03*
X017000Y014711D03*
X017000Y013711D03*
X017000Y012711D03*
X017000Y011711D03*
X017000Y010711D03*
X017000Y009711D03*
X017000Y008711D03*
X017000Y007711D03*
X017000Y006711D03*
X017000Y005711D03*
X017000Y004711D03*
X017000Y003711D03*
X015850Y006141D03*
X015850Y007141D03*
X015850Y010261D03*
X015850Y011261D03*
X015850Y020905D03*
X012504Y020905D03*
X008173Y001023D03*
D12*
X008177Y003904D03*
X008177Y005904D03*
D13*
X008173Y001023D02*
X008173Y000771D01*
X017035Y000771D01*
X017035Y003711D01*
X017000Y003711D01*
X013492Y002255D02*
X013492Y008841D01*
X014912Y010261D01*
X015850Y010261D01*
X015595Y011007D02*
X014083Y011007D01*
X012386Y009310D01*
X012386Y002149D01*
X013386Y002149D02*
X013492Y002255D01*
X015595Y011007D02*
X015850Y011261D01*
X016327Y012385D02*
X007587Y012385D01*
X004043Y017897D01*
X004043Y023334D01*
X004118Y023408D01*
X005028Y023318D02*
X005028Y019668D01*
X010984Y013711D01*
X017000Y013711D01*
X016327Y012385D02*
X017000Y011711D01*
X015500Y015711D02*
X014870Y017109D01*
X007118Y023408D01*
X006118Y023408D02*
X011827Y017700D01*
X012902Y017700D01*
X014500Y016101D01*
X014500Y015711D01*
X005118Y023408D02*
X005028Y023318D01*
D14*
X007587Y012385D03*
M02*
