G75*
G70*
%OFA0B0*%
%FSLAX24Y24*%
%IPPOS*%
%LPD*%
%AMOC8*
5,1,8,0,0,1.08239X$1,22.5*
%
%ADD10C,0.0160*%
%ADD11C,0.0000*%
%ADD12C,0.0060*%
%ADD13C,0.0050*%
D10*
X000500Y000180D02*
X000500Y025771D01*
X020185Y025771D01*
X020185Y000180D01*
X000500Y000180D01*
D11*
X018610Y001164D02*
X018612Y001212D01*
X018618Y001260D01*
X018628Y001307D01*
X018641Y001353D01*
X018659Y001398D01*
X018679Y001442D01*
X018704Y001484D01*
X018732Y001523D01*
X018762Y001560D01*
X018796Y001594D01*
X018833Y001626D01*
X018871Y001655D01*
X018912Y001680D01*
X018955Y001702D01*
X019000Y001720D01*
X019046Y001734D01*
X019093Y001745D01*
X019141Y001752D01*
X019189Y001755D01*
X019237Y001754D01*
X019285Y001749D01*
X019333Y001740D01*
X019379Y001728D01*
X019424Y001711D01*
X019468Y001691D01*
X019510Y001668D01*
X019550Y001641D01*
X019588Y001611D01*
X019623Y001578D01*
X019655Y001542D01*
X019685Y001504D01*
X019711Y001463D01*
X019733Y001420D01*
X019753Y001376D01*
X019768Y001331D01*
X019780Y001284D01*
X019788Y001236D01*
X019792Y001188D01*
X019792Y001140D01*
X019788Y001092D01*
X019780Y001044D01*
X019768Y000997D01*
X019753Y000952D01*
X019733Y000908D01*
X019711Y000865D01*
X019685Y000824D01*
X019655Y000786D01*
X019623Y000750D01*
X019588Y000717D01*
X019550Y000687D01*
X019510Y000660D01*
X019468Y000637D01*
X019424Y000617D01*
X019379Y000600D01*
X019333Y000588D01*
X019285Y000579D01*
X019237Y000574D01*
X019189Y000573D01*
X019141Y000576D01*
X019093Y000583D01*
X019046Y000594D01*
X019000Y000608D01*
X018955Y000626D01*
X018912Y000648D01*
X018871Y000673D01*
X018833Y000702D01*
X018796Y000734D01*
X018762Y000768D01*
X018732Y000805D01*
X018704Y000844D01*
X018679Y000886D01*
X018659Y000930D01*
X018641Y000975D01*
X018628Y001021D01*
X018618Y001068D01*
X018612Y001116D01*
X018610Y001164D01*
X018610Y024786D02*
X018612Y024834D01*
X018618Y024882D01*
X018628Y024929D01*
X018641Y024975D01*
X018659Y025020D01*
X018679Y025064D01*
X018704Y025106D01*
X018732Y025145D01*
X018762Y025182D01*
X018796Y025216D01*
X018833Y025248D01*
X018871Y025277D01*
X018912Y025302D01*
X018955Y025324D01*
X019000Y025342D01*
X019046Y025356D01*
X019093Y025367D01*
X019141Y025374D01*
X019189Y025377D01*
X019237Y025376D01*
X019285Y025371D01*
X019333Y025362D01*
X019379Y025350D01*
X019424Y025333D01*
X019468Y025313D01*
X019510Y025290D01*
X019550Y025263D01*
X019588Y025233D01*
X019623Y025200D01*
X019655Y025164D01*
X019685Y025126D01*
X019711Y025085D01*
X019733Y025042D01*
X019753Y024998D01*
X019768Y024953D01*
X019780Y024906D01*
X019788Y024858D01*
X019792Y024810D01*
X019792Y024762D01*
X019788Y024714D01*
X019780Y024666D01*
X019768Y024619D01*
X019753Y024574D01*
X019733Y024530D01*
X019711Y024487D01*
X019685Y024446D01*
X019655Y024408D01*
X019623Y024372D01*
X019588Y024339D01*
X019550Y024309D01*
X019510Y024282D01*
X019468Y024259D01*
X019424Y024239D01*
X019379Y024222D01*
X019333Y024210D01*
X019285Y024201D01*
X019237Y024196D01*
X019189Y024195D01*
X019141Y024198D01*
X019093Y024205D01*
X019046Y024216D01*
X019000Y024230D01*
X018955Y024248D01*
X018912Y024270D01*
X018871Y024295D01*
X018833Y024324D01*
X018796Y024356D01*
X018762Y024390D01*
X018732Y024427D01*
X018704Y024466D01*
X018679Y024508D01*
X018659Y024552D01*
X018641Y024597D01*
X018628Y024643D01*
X018618Y024690D01*
X018612Y024738D01*
X018610Y024786D01*
X000893Y024786D02*
X000895Y024834D01*
X000901Y024882D01*
X000911Y024929D01*
X000924Y024975D01*
X000942Y025020D01*
X000962Y025064D01*
X000987Y025106D01*
X001015Y025145D01*
X001045Y025182D01*
X001079Y025216D01*
X001116Y025248D01*
X001154Y025277D01*
X001195Y025302D01*
X001238Y025324D01*
X001283Y025342D01*
X001329Y025356D01*
X001376Y025367D01*
X001424Y025374D01*
X001472Y025377D01*
X001520Y025376D01*
X001568Y025371D01*
X001616Y025362D01*
X001662Y025350D01*
X001707Y025333D01*
X001751Y025313D01*
X001793Y025290D01*
X001833Y025263D01*
X001871Y025233D01*
X001906Y025200D01*
X001938Y025164D01*
X001968Y025126D01*
X001994Y025085D01*
X002016Y025042D01*
X002036Y024998D01*
X002051Y024953D01*
X002063Y024906D01*
X002071Y024858D01*
X002075Y024810D01*
X002075Y024762D01*
X002071Y024714D01*
X002063Y024666D01*
X002051Y024619D01*
X002036Y024574D01*
X002016Y024530D01*
X001994Y024487D01*
X001968Y024446D01*
X001938Y024408D01*
X001906Y024372D01*
X001871Y024339D01*
X001833Y024309D01*
X001793Y024282D01*
X001751Y024259D01*
X001707Y024239D01*
X001662Y024222D01*
X001616Y024210D01*
X001568Y024201D01*
X001520Y024196D01*
X001472Y024195D01*
X001424Y024198D01*
X001376Y024205D01*
X001329Y024216D01*
X001283Y024230D01*
X001238Y024248D01*
X001195Y024270D01*
X001154Y024295D01*
X001116Y024324D01*
X001079Y024356D01*
X001045Y024390D01*
X001015Y024427D01*
X000987Y024466D01*
X000962Y024508D01*
X000942Y024552D01*
X000924Y024597D01*
X000911Y024643D01*
X000901Y024690D01*
X000895Y024738D01*
X000893Y024786D01*
D12*
X003618Y023658D02*
X003618Y023158D01*
X003868Y022908D01*
X004368Y022908D01*
X004618Y023158D01*
X004868Y022908D01*
X005368Y022908D01*
X005618Y023158D01*
X005868Y022908D01*
X006368Y022908D01*
X006618Y023158D01*
X006868Y022908D01*
X007368Y022908D01*
X007618Y023158D01*
X007618Y023658D01*
X007368Y023908D01*
X006868Y023908D01*
X006618Y023658D01*
X006368Y023908D01*
X005868Y023908D01*
X005618Y023658D01*
X005368Y023908D01*
X004868Y023908D01*
X004618Y023658D01*
X004368Y023908D01*
X003868Y023908D01*
X003618Y023658D01*
X012136Y002649D02*
X012636Y002649D01*
X012886Y002399D01*
X013136Y002649D01*
X013636Y002649D01*
X013886Y002399D01*
X014136Y002649D01*
X014636Y002649D01*
X014886Y002399D01*
X015136Y002649D01*
X015636Y002649D01*
X015886Y002399D01*
X015886Y001899D01*
X015636Y001649D01*
X015136Y001649D01*
X014886Y001899D01*
X014636Y001649D01*
X014136Y001649D01*
X013886Y001899D01*
X013636Y001649D01*
X013136Y001649D01*
X012886Y001899D01*
X012636Y001649D01*
X012136Y001649D01*
X011886Y001899D01*
X011886Y002399D01*
X012136Y002649D01*
D13*
X011651Y002149D02*
X011350Y002149D01*
X011576Y002374D01*
X011576Y001924D01*
X014530Y001399D02*
X014530Y001324D01*
X014605Y001249D01*
X014755Y001249D01*
X014830Y001174D01*
X014830Y001099D01*
X014755Y001024D01*
X014605Y001024D01*
X014530Y001099D01*
X014530Y001399D02*
X014605Y001474D01*
X014755Y001474D01*
X014830Y001399D01*
X014990Y001474D02*
X014990Y001174D01*
X015140Y001024D01*
X015290Y001174D01*
X015290Y001474D01*
X015450Y001399D02*
X015525Y001474D01*
X015676Y001474D01*
X015751Y001399D01*
X015751Y001324D01*
X015450Y001024D01*
X015751Y001024D01*
X015900Y001924D02*
X016201Y001924D01*
X016051Y001924D02*
X016051Y002374D01*
X015900Y002224D01*
X008427Y004404D02*
X008177Y004404D01*
X007927Y004404D01*
X007927Y005404D01*
X008177Y005404D01*
X008427Y005404D01*
X008427Y004404D01*
X008177Y004404D02*
X008177Y004204D01*
X007752Y004429D02*
X007752Y004730D01*
X007677Y004890D02*
X007752Y004965D01*
X007752Y005115D01*
X007677Y005190D01*
X007602Y005190D01*
X007527Y005115D01*
X007527Y004965D01*
X007452Y004890D01*
X007377Y004890D01*
X007302Y004965D01*
X007302Y005115D01*
X007377Y005190D01*
X007377Y005350D02*
X007302Y005425D01*
X007302Y005575D01*
X007377Y005650D01*
X007452Y005650D01*
X007752Y005350D01*
X007752Y005650D01*
X008177Y005604D02*
X008177Y005404D01*
X007827Y005040D02*
X007227Y005040D01*
X007302Y004730D02*
X007302Y004429D01*
X007752Y004429D01*
X007527Y004429D02*
X007527Y004580D01*
X007968Y023183D02*
X007968Y023634D01*
X007743Y023409D01*
X008043Y023409D01*
X004864Y024083D02*
X004564Y024083D01*
X004714Y024083D02*
X004714Y024534D01*
X004564Y024384D01*
X004404Y024534D02*
X004404Y024233D01*
X004254Y024083D01*
X004104Y024233D01*
X004104Y024534D01*
X003943Y024459D02*
X003868Y024534D01*
X003718Y024534D01*
X003643Y024459D01*
X003643Y024384D01*
X003718Y024309D01*
X003868Y024309D01*
X003943Y024233D01*
X003943Y024158D01*
X003868Y024083D01*
X003718Y024083D01*
X003643Y024158D01*
X003343Y023634D02*
X003343Y023183D01*
X003193Y023183D02*
X003493Y023183D01*
X003193Y023484D02*
X003343Y023634D01*
M02*
