G75*
G70*
%OFA0B0*%
%FSLAX24Y24*%
%IPPOS*%
%LPD*%
%AMOC8*
5,1,8,0,0,1.08239X$1,22.5*
%
%ADD10C,0.1261*%
%ADD11C,0.0680*%
%ADD12C,0.0680*%
%ADD13R,0.1025X0.1241*%
%ADD14R,0.1025X0.1123*%
%ADD15OC8,0.0710*%
%ADD16R,0.0476X0.0476*%
D10*
X019201Y001164D03*
X019201Y024786D03*
X001484Y024786D03*
D11*
X004118Y023708D02*
X004118Y023108D01*
X005118Y023108D02*
X005118Y023708D01*
X006118Y023708D02*
X006118Y023108D01*
X007118Y023108D02*
X007118Y023708D01*
X012386Y002449D02*
X012386Y001849D01*
X013386Y001849D02*
X013386Y002449D01*
X014386Y002449D02*
X014386Y001849D01*
X015386Y001849D02*
X015386Y002449D01*
D12*
X017000Y003711D03*
X017000Y004711D03*
X017000Y005711D03*
X017000Y006711D03*
X017000Y007711D03*
X017000Y008711D03*
X017000Y009711D03*
X017000Y010711D03*
X017000Y011711D03*
X017000Y012711D03*
X017000Y013711D03*
X017000Y014711D03*
X016500Y015711D03*
X015500Y015711D03*
X014500Y015711D03*
X013500Y015711D03*
X012500Y015711D03*
X011500Y015711D03*
X012504Y020905D03*
X015850Y020905D03*
X015850Y011261D03*
X015850Y010261D03*
X015850Y007141D03*
X015850Y006141D03*
X008173Y001023D03*
D13*
X001169Y002532D03*
X002232Y005111D03*
D14*
X004988Y002473D03*
D15*
X008177Y003904D03*
X008177Y005904D03*
D16*
X007587Y012385D03*
M02*
