%
M48
M72
T01C0.0236
T02C0.0320
T03C0.0400
T04C0.1181
%
T01
X7587Y12385
T02
X8177Y5904
X8177Y3904
T03
X8173Y1023
X12386Y2149
X13386Y2149
X14386Y2149
X15386Y2149
X17000Y3711
X17000Y4711
X17000Y5711
X17000Y6711
X17000Y7711
X17000Y8711
X17000Y9711
X17000Y10711
X17000Y11711
X17000Y12711
X17000Y13711
X17000Y14711
X16500Y15711
X15500Y15711
X14500Y15711
X13500Y15711
X12500Y15711
X11500Y15711
X12504Y20905
X15850Y20905
X15850Y11261
X15850Y10261
X15850Y7141
X15850Y6141
X7118Y23408
X6118Y23408
X5118Y23408
X4118Y23408
T04
X1484Y24786
X19201Y24786
X19201Y1164
M30
