G75*
G70*
%OFA0B0*%
%FSLAX24Y24*%
%IPPOS*%
%LPD*%
%AMOC8*
5,1,8,0,0,1.08239X$1,22.5*
%
%ADD10C,0.0160*%
%ADD11C,0.0000*%
%ADD12C,0.0080*%
%ADD13C,0.0050*%
D10*
X000500Y000180D02*
X000500Y025771D01*
X020185Y025771D01*
X020185Y000180D01*
X000500Y000180D01*
D11*
X018610Y001164D02*
X018612Y001212D01*
X018618Y001260D01*
X018628Y001307D01*
X018641Y001353D01*
X018659Y001398D01*
X018679Y001442D01*
X018704Y001484D01*
X018732Y001523D01*
X018762Y001560D01*
X018796Y001594D01*
X018833Y001626D01*
X018871Y001655D01*
X018912Y001680D01*
X018955Y001702D01*
X019000Y001720D01*
X019046Y001734D01*
X019093Y001745D01*
X019141Y001752D01*
X019189Y001755D01*
X019237Y001754D01*
X019285Y001749D01*
X019333Y001740D01*
X019379Y001728D01*
X019424Y001711D01*
X019468Y001691D01*
X019510Y001668D01*
X019550Y001641D01*
X019588Y001611D01*
X019623Y001578D01*
X019655Y001542D01*
X019685Y001504D01*
X019711Y001463D01*
X019733Y001420D01*
X019753Y001376D01*
X019768Y001331D01*
X019780Y001284D01*
X019788Y001236D01*
X019792Y001188D01*
X019792Y001140D01*
X019788Y001092D01*
X019780Y001044D01*
X019768Y000997D01*
X019753Y000952D01*
X019733Y000908D01*
X019711Y000865D01*
X019685Y000824D01*
X019655Y000786D01*
X019623Y000750D01*
X019588Y000717D01*
X019550Y000687D01*
X019510Y000660D01*
X019468Y000637D01*
X019424Y000617D01*
X019379Y000600D01*
X019333Y000588D01*
X019285Y000579D01*
X019237Y000574D01*
X019189Y000573D01*
X019141Y000576D01*
X019093Y000583D01*
X019046Y000594D01*
X019000Y000608D01*
X018955Y000626D01*
X018912Y000648D01*
X018871Y000673D01*
X018833Y000702D01*
X018796Y000734D01*
X018762Y000768D01*
X018732Y000805D01*
X018704Y000844D01*
X018679Y000886D01*
X018659Y000930D01*
X018641Y000975D01*
X018628Y001021D01*
X018618Y001068D01*
X018612Y001116D01*
X018610Y001164D01*
X018610Y024786D02*
X018612Y024834D01*
X018618Y024882D01*
X018628Y024929D01*
X018641Y024975D01*
X018659Y025020D01*
X018679Y025064D01*
X018704Y025106D01*
X018732Y025145D01*
X018762Y025182D01*
X018796Y025216D01*
X018833Y025248D01*
X018871Y025277D01*
X018912Y025302D01*
X018955Y025324D01*
X019000Y025342D01*
X019046Y025356D01*
X019093Y025367D01*
X019141Y025374D01*
X019189Y025377D01*
X019237Y025376D01*
X019285Y025371D01*
X019333Y025362D01*
X019379Y025350D01*
X019424Y025333D01*
X019468Y025313D01*
X019510Y025290D01*
X019550Y025263D01*
X019588Y025233D01*
X019623Y025200D01*
X019655Y025164D01*
X019685Y025126D01*
X019711Y025085D01*
X019733Y025042D01*
X019753Y024998D01*
X019768Y024953D01*
X019780Y024906D01*
X019788Y024858D01*
X019792Y024810D01*
X019792Y024762D01*
X019788Y024714D01*
X019780Y024666D01*
X019768Y024619D01*
X019753Y024574D01*
X019733Y024530D01*
X019711Y024487D01*
X019685Y024446D01*
X019655Y024408D01*
X019623Y024372D01*
X019588Y024339D01*
X019550Y024309D01*
X019510Y024282D01*
X019468Y024259D01*
X019424Y024239D01*
X019379Y024222D01*
X019333Y024210D01*
X019285Y024201D01*
X019237Y024196D01*
X019189Y024195D01*
X019141Y024198D01*
X019093Y024205D01*
X019046Y024216D01*
X019000Y024230D01*
X018955Y024248D01*
X018912Y024270D01*
X018871Y024295D01*
X018833Y024324D01*
X018796Y024356D01*
X018762Y024390D01*
X018732Y024427D01*
X018704Y024466D01*
X018679Y024508D01*
X018659Y024552D01*
X018641Y024597D01*
X018628Y024643D01*
X018618Y024690D01*
X018612Y024738D01*
X018610Y024786D01*
X000893Y024786D02*
X000895Y024834D01*
X000901Y024882D01*
X000911Y024929D01*
X000924Y024975D01*
X000942Y025020D01*
X000962Y025064D01*
X000987Y025106D01*
X001015Y025145D01*
X001045Y025182D01*
X001079Y025216D01*
X001116Y025248D01*
X001154Y025277D01*
X001195Y025302D01*
X001238Y025324D01*
X001283Y025342D01*
X001329Y025356D01*
X001376Y025367D01*
X001424Y025374D01*
X001472Y025377D01*
X001520Y025376D01*
X001568Y025371D01*
X001616Y025362D01*
X001662Y025350D01*
X001707Y025333D01*
X001751Y025313D01*
X001793Y025290D01*
X001833Y025263D01*
X001871Y025233D01*
X001906Y025200D01*
X001938Y025164D01*
X001968Y025126D01*
X001994Y025085D01*
X002016Y025042D01*
X002036Y024998D01*
X002051Y024953D01*
X002063Y024906D01*
X002071Y024858D01*
X002075Y024810D01*
X002075Y024762D01*
X002071Y024714D01*
X002063Y024666D01*
X002051Y024619D01*
X002036Y024574D01*
X002016Y024530D01*
X001994Y024487D01*
X001968Y024446D01*
X001938Y024408D01*
X001906Y024372D01*
X001871Y024339D01*
X001833Y024309D01*
X001793Y024282D01*
X001751Y024259D01*
X001707Y024239D01*
X001662Y024222D01*
X001616Y024210D01*
X001568Y024201D01*
X001520Y024196D01*
X001472Y024195D01*
X001424Y024198D01*
X001376Y024205D01*
X001329Y024216D01*
X001283Y024230D01*
X001238Y024248D01*
X001195Y024270D01*
X001154Y024295D01*
X001116Y024324D01*
X001079Y024356D01*
X001045Y024390D01*
X001015Y024427D01*
X000987Y024466D01*
X000962Y024508D01*
X000942Y024552D01*
X000924Y024597D01*
X000911Y024643D01*
X000901Y024690D01*
X000895Y024738D01*
X000893Y024786D01*
D12*
X011000Y015961D02*
X011000Y015461D01*
X011250Y015211D01*
X011750Y015211D01*
X012000Y015461D01*
X012250Y015211D01*
X012750Y015211D01*
X013000Y015461D01*
X013250Y015211D01*
X013750Y015211D01*
X014000Y015461D01*
X014250Y015211D01*
X014750Y015211D01*
X015000Y015461D01*
X015250Y015211D01*
X015750Y015211D01*
X016000Y015461D01*
X016250Y015211D01*
X016750Y015211D01*
X017000Y015461D01*
X017000Y015961D01*
X016750Y016211D01*
X016250Y016211D01*
X016000Y015961D01*
X015750Y016211D01*
X015250Y016211D01*
X015000Y015961D01*
X014750Y016211D01*
X014250Y016211D01*
X014000Y015961D01*
X013750Y016211D01*
X013250Y016211D01*
X013000Y015961D01*
X012750Y016211D01*
X012250Y016211D01*
X012000Y015961D01*
X011750Y016211D01*
X011250Y016211D01*
X011000Y015961D01*
X012254Y020405D02*
X012754Y020405D01*
X013004Y020655D01*
X013004Y021155D01*
X012754Y021405D01*
X012254Y021405D01*
X012004Y021155D01*
X012004Y020655D01*
X012254Y020405D01*
X015350Y020655D02*
X015350Y021155D01*
X015600Y021405D01*
X016100Y021405D01*
X016350Y021155D01*
X016350Y020655D01*
X016100Y020405D01*
X015600Y020405D01*
X015350Y020655D01*
X016750Y015211D02*
X016500Y014961D01*
X016500Y014461D01*
X016750Y014211D01*
X016500Y013961D01*
X016500Y013461D01*
X016750Y013211D01*
X016500Y012961D01*
X016500Y012461D01*
X016750Y012211D01*
X016500Y011961D01*
X016500Y011461D01*
X016750Y011211D01*
X016500Y010961D01*
X016500Y010461D01*
X016750Y010211D01*
X016500Y009961D01*
X016500Y009461D01*
X016750Y009211D01*
X016500Y008961D01*
X016500Y008461D01*
X016750Y008211D01*
X016500Y007961D01*
X016500Y007461D01*
X016750Y007211D01*
X016500Y006961D01*
X016500Y006461D01*
X016750Y006211D01*
X016500Y005961D01*
X016500Y005461D01*
X016750Y005211D01*
X016500Y004961D01*
X016500Y004461D01*
X016750Y004211D01*
X016500Y003961D01*
X016500Y003461D01*
X016750Y003211D01*
X017250Y003211D01*
X017500Y003461D01*
X017500Y003961D01*
X017250Y004211D01*
X017500Y004461D01*
X017500Y004961D01*
X017250Y005211D01*
X017500Y005461D01*
X017500Y005961D01*
X017250Y006211D01*
X017500Y006461D01*
X017500Y006961D01*
X017250Y007211D01*
X017500Y007461D01*
X017500Y007961D01*
X017250Y008211D01*
X017500Y008461D01*
X017500Y008961D01*
X017250Y009211D01*
X017500Y009461D01*
X017500Y009961D01*
X017250Y010211D01*
X017500Y010461D01*
X017500Y010961D01*
X017250Y011211D01*
X017500Y011461D01*
X017500Y011961D01*
X017250Y012211D01*
X017500Y012461D01*
X017500Y012961D01*
X017250Y013211D01*
X017500Y013461D01*
X017500Y013961D01*
X017250Y014211D01*
X017500Y014461D01*
X017500Y014961D01*
X017250Y015211D01*
X016750Y015211D01*
X016100Y011761D02*
X015600Y011761D01*
X015350Y011511D01*
X015350Y011011D01*
X015600Y010761D01*
X015350Y010511D01*
X015350Y010011D01*
X015600Y009761D01*
X016100Y009761D01*
X016350Y010011D01*
X016350Y010511D01*
X016100Y010761D01*
X016350Y011011D01*
X016350Y011511D01*
X016100Y011761D01*
X016100Y007641D02*
X015600Y007641D01*
X015350Y007391D01*
X015350Y006891D01*
X015600Y006641D01*
X016100Y006641D01*
X016350Y006891D01*
X016350Y007391D01*
X016100Y007641D01*
X016100Y006641D02*
X015600Y006641D01*
X015350Y006391D01*
X015350Y005891D01*
X015600Y005641D01*
X016100Y005641D01*
X016350Y005891D01*
X016350Y006391D01*
X016100Y006641D01*
X008673Y001273D02*
X008673Y000773D01*
X008423Y000523D01*
X007923Y000523D01*
X007673Y000773D01*
X007673Y001273D01*
X007923Y001523D01*
X008423Y001523D01*
X008673Y001273D01*
D13*
X008603Y001768D02*
X008528Y001768D01*
X008453Y001843D01*
X008453Y002219D01*
X008528Y002219D02*
X008378Y002219D01*
X008217Y002219D02*
X007992Y002219D01*
X007917Y002144D01*
X007917Y001994D01*
X007992Y001919D01*
X008217Y001919D01*
X008217Y001768D02*
X008217Y002219D01*
X007757Y002219D02*
X007457Y002219D01*
X007457Y002144D01*
X007757Y001843D01*
X007757Y001768D01*
X008603Y001768D02*
X008678Y001843D01*
X015134Y006962D02*
X015209Y006886D01*
X015359Y006886D01*
X015434Y006962D01*
X015284Y007112D02*
X015209Y007112D01*
X015134Y007037D01*
X015134Y006962D01*
X015209Y007112D02*
X015134Y007187D01*
X015134Y007262D01*
X015209Y007337D01*
X015359Y007337D01*
X015434Y007262D01*
X015594Y007262D02*
X015669Y007337D01*
X015895Y007337D01*
X015895Y006886D01*
X015895Y007037D02*
X015669Y007037D01*
X015594Y007112D01*
X015594Y007262D01*
X016055Y007337D02*
X016205Y007337D01*
X016130Y007337D02*
X016130Y006962D01*
X016205Y006886D01*
X016280Y006886D01*
X016355Y006962D01*
X016280Y007886D02*
X016205Y007886D01*
X016130Y007962D01*
X016130Y008337D01*
X016205Y008337D02*
X016055Y008337D01*
X015895Y008337D02*
X015669Y008337D01*
X015594Y008262D01*
X015594Y008112D01*
X015669Y008037D01*
X015895Y008037D01*
X015895Y007886D02*
X015895Y008337D01*
X016280Y007886D02*
X016355Y007962D01*
X015434Y008112D02*
X015134Y008112D01*
X015209Y008337D02*
X015209Y007886D01*
X015434Y008112D02*
X015209Y008337D01*
X016670Y009756D02*
X016595Y009832D01*
X016595Y009907D01*
X016670Y009982D01*
X017045Y009982D01*
X017045Y009907D02*
X017045Y010057D01*
X017045Y010217D02*
X017045Y010442D01*
X016970Y010517D01*
X016820Y010517D01*
X016745Y010442D01*
X016745Y010217D01*
X016595Y010217D02*
X017045Y010217D01*
X016970Y010677D02*
X017045Y010752D01*
X017045Y010902D01*
X016970Y010978D01*
X016895Y010978D01*
X016595Y010677D01*
X016595Y010978D01*
X015880Y013885D02*
X015805Y013960D01*
X015805Y014035D01*
X015880Y014111D01*
X016255Y014111D01*
X016255Y014186D02*
X016255Y014035D01*
X016255Y014346D02*
X016255Y014571D01*
X016180Y014646D01*
X016030Y014646D01*
X015955Y014571D01*
X015955Y014346D01*
X015805Y014346D02*
X016255Y014346D01*
X016030Y014806D02*
X015880Y014806D01*
X015805Y014881D01*
X015805Y015031D01*
X015880Y015106D01*
X015955Y015106D01*
X016030Y015031D01*
X016030Y014806D01*
X016180Y014956D01*
X016255Y015106D01*
X016084Y016456D02*
X015784Y016456D01*
X015934Y016456D02*
X015934Y016907D01*
X016084Y016757D01*
X016244Y016832D02*
X016244Y016682D01*
X016319Y016607D01*
X016545Y016607D01*
X016545Y016456D02*
X016545Y016907D01*
X016319Y016907D01*
X016244Y016832D01*
X016705Y016907D02*
X016855Y016907D01*
X016780Y016907D02*
X016780Y016532D01*
X016855Y016456D01*
X016930Y016456D01*
X017005Y016532D01*
X016280Y021650D02*
X016205Y021650D01*
X016130Y021725D01*
X016130Y022101D01*
X016205Y022101D02*
X016055Y022101D01*
X015895Y022101D02*
X015669Y022101D01*
X015594Y022026D01*
X015594Y021875D01*
X015669Y021800D01*
X015895Y021800D01*
X015895Y021650D02*
X015895Y022101D01*
X016280Y021650D02*
X016355Y021725D01*
X015434Y021725D02*
X015359Y021650D01*
X015209Y021650D01*
X015134Y021725D01*
X015134Y022026D01*
X015209Y022101D01*
X015359Y022101D01*
X015434Y022026D01*
X015434Y021951D01*
X015359Y021875D01*
X015134Y021875D01*
X013009Y021725D02*
X012933Y021650D01*
X012858Y021650D01*
X012783Y021725D01*
X012783Y022101D01*
X012858Y022101D02*
X012708Y022101D01*
X012548Y022101D02*
X012323Y022101D01*
X012248Y022026D01*
X012248Y021875D01*
X012323Y021800D01*
X012548Y021800D01*
X012548Y021650D02*
X012548Y022101D01*
X012088Y022026D02*
X012088Y021951D01*
X012013Y021875D01*
X011863Y021875D01*
X011788Y021800D01*
X011788Y021725D01*
X011863Y021650D01*
X012013Y021650D01*
X012088Y021725D01*
X012088Y021800D01*
X012013Y021875D01*
X011863Y021875D02*
X011788Y021951D01*
X011788Y022026D01*
X011863Y022101D01*
X012013Y022101D01*
X012088Y022026D01*
M02*
