%
M48
M72
T01C0.0236
T02C0.0394
T03C0.0400
%
T01
X6386Y12188
T02
X2843Y771
X11024Y771
X11024Y14164
X2843Y14164
T03
X2843Y12204
X2843Y11204
X2843Y10204
X5433Y15149
X6433Y15149
X7433Y15149
X8433Y15149
X9933Y12467
X9933Y11467
X9933Y10467
X9933Y9467
X9933Y8467
X9933Y7467
X9933Y6467
X9933Y5467
X9933Y4467
X9933Y3467
X9933Y2467
X9933Y1467
X8783Y8017
X8783Y9017
M30
