G75*
G70*
%OFA0B0*%
%FSLAX24Y24*%
%IPPOS*%
%LPD*%
%AMOC8*
5,1,8,0,0,1.08239X$1,22.5*
%
%ADD10C,0.0160*%
%ADD11C,0.0000*%
%ADD12C,0.0060*%
%ADD13C,0.0050*%
D10*
X002252Y000180D02*
X011614Y000180D01*
X011614Y014755D01*
X009720Y014755D01*
X009720Y015936D01*
X004146Y015936D01*
X004146Y014755D01*
X002252Y014755D01*
X002252Y000180D01*
X011614Y000180D01*
X011614Y000339D02*
X002252Y000339D01*
X002252Y000497D02*
X011614Y000497D01*
X011614Y000656D02*
X002252Y000656D01*
X002252Y000814D02*
X011614Y000814D01*
X011614Y000973D02*
X002252Y000973D01*
X002252Y001131D02*
X011614Y001131D01*
X011614Y001290D02*
X002252Y001290D01*
X002252Y001448D02*
X011614Y001448D01*
X011614Y001607D02*
X002252Y001607D01*
X002252Y001765D02*
X011614Y001765D01*
X011614Y001924D02*
X002252Y001924D01*
X002252Y002082D02*
X011614Y002082D01*
X011614Y002241D02*
X002252Y002241D01*
X002252Y002399D02*
X011614Y002399D01*
X011614Y002558D02*
X002252Y002558D01*
X002252Y002716D02*
X011614Y002716D01*
X011614Y002875D02*
X002252Y002875D01*
X002252Y003033D02*
X011614Y003033D01*
X011614Y003192D02*
X002252Y003192D01*
X002252Y003350D02*
X011614Y003350D01*
X011614Y003509D02*
X002252Y003509D01*
X002252Y003667D02*
X011614Y003667D01*
X011614Y003826D02*
X002252Y003826D01*
X002252Y003984D02*
X011614Y003984D01*
X011614Y004143D02*
X002252Y004143D01*
X002252Y004301D02*
X011614Y004301D01*
X011614Y004460D02*
X002252Y004460D01*
X002252Y004618D02*
X011614Y004618D01*
X011614Y004777D02*
X002252Y004777D01*
X002252Y004935D02*
X011614Y004935D01*
X011614Y005094D02*
X002252Y005094D01*
X002252Y005252D02*
X011614Y005252D01*
X011614Y005411D02*
X002252Y005411D01*
X002252Y005569D02*
X011614Y005569D01*
X011614Y005728D02*
X002252Y005728D01*
X002252Y005886D02*
X011614Y005886D01*
X011614Y006045D02*
X002252Y006045D01*
X002252Y006203D02*
X011614Y006203D01*
X011614Y006362D02*
X002252Y006362D01*
X002252Y006520D02*
X011614Y006520D01*
X011614Y006679D02*
X002252Y006679D01*
X002252Y006837D02*
X011614Y006837D01*
X011614Y006996D02*
X002252Y006996D01*
X002252Y007154D02*
X011614Y007154D01*
X011614Y007313D02*
X002252Y007313D01*
X002252Y007471D02*
X011614Y007471D01*
X011614Y007630D02*
X002252Y007630D01*
X002252Y007788D02*
X011614Y007788D01*
X011614Y007947D02*
X002252Y007947D01*
X002252Y008105D02*
X011614Y008105D01*
X011614Y008264D02*
X002252Y008264D01*
X002252Y008422D02*
X011614Y008422D01*
X011614Y008581D02*
X002252Y008581D01*
X002252Y008739D02*
X011614Y008739D01*
X011614Y008898D02*
X002252Y008898D01*
X002252Y009056D02*
X011614Y009056D01*
X011614Y009215D02*
X002252Y009215D01*
X002252Y009373D02*
X011614Y009373D01*
X011614Y009532D02*
X002252Y009532D01*
X002252Y009690D02*
X011614Y009690D01*
X011614Y009849D02*
X002252Y009849D01*
X002252Y010007D02*
X011614Y010007D01*
X011614Y010166D02*
X002252Y010166D01*
X002252Y010324D02*
X011614Y010324D01*
X011614Y010483D02*
X002252Y010483D01*
X002252Y010641D02*
X011614Y010641D01*
X011614Y010800D02*
X002252Y010800D01*
X002252Y010958D02*
X011614Y010958D01*
X011614Y011117D02*
X002252Y011117D01*
X002252Y011275D02*
X011614Y011275D01*
X011614Y011434D02*
X002252Y011434D01*
X002252Y011592D02*
X011614Y011592D01*
X011614Y011751D02*
X002252Y011751D01*
X002252Y011909D02*
X011614Y011909D01*
X011614Y012068D02*
X002252Y012068D01*
X002252Y012226D02*
X011614Y012226D01*
X011614Y012385D02*
X002252Y012385D01*
X002252Y012543D02*
X011614Y012543D01*
X011614Y012702D02*
X002252Y012702D01*
X002252Y012860D02*
X011614Y012860D01*
X011614Y013019D02*
X002252Y013019D01*
X002252Y013177D02*
X011614Y013177D01*
X011614Y013336D02*
X002252Y013336D01*
X002252Y013494D02*
X011614Y013494D01*
X011614Y013653D02*
X002252Y013653D01*
X002252Y013811D02*
X011614Y013811D01*
X011614Y013970D02*
X002252Y013970D01*
X002252Y014128D02*
X011614Y014128D01*
X011614Y014287D02*
X002252Y014287D01*
X002252Y014445D02*
X011614Y014445D01*
X011614Y014604D02*
X002252Y014604D01*
X004146Y014762D02*
X009720Y014762D01*
X009720Y014921D02*
X004146Y014921D01*
X004146Y015079D02*
X009720Y015079D01*
X009720Y015238D02*
X004146Y015238D01*
X004146Y015396D02*
X009720Y015396D01*
X009720Y015555D02*
X004146Y015555D01*
X004146Y015713D02*
X009720Y015713D01*
X009720Y015872D02*
X004146Y015872D01*
D11*
X002646Y014164D02*
X002648Y014191D01*
X002654Y014218D01*
X002663Y014244D01*
X002676Y014268D01*
X002692Y014291D01*
X002711Y014310D01*
X002733Y014327D01*
X002757Y014341D01*
X002782Y014351D01*
X002809Y014358D01*
X002836Y014361D01*
X002864Y014360D01*
X002891Y014355D01*
X002917Y014347D01*
X002941Y014335D01*
X002964Y014319D01*
X002985Y014301D01*
X003002Y014280D01*
X003017Y014256D01*
X003028Y014231D01*
X003036Y014205D01*
X003040Y014178D01*
X003040Y014150D01*
X003036Y014123D01*
X003028Y014097D01*
X003017Y014072D01*
X003002Y014048D01*
X002985Y014027D01*
X002964Y014009D01*
X002942Y013993D01*
X002917Y013981D01*
X002891Y013973D01*
X002864Y013968D01*
X002836Y013967D01*
X002809Y013970D01*
X002782Y013977D01*
X002757Y013987D01*
X002733Y014001D01*
X002711Y014018D01*
X002692Y014037D01*
X002676Y014060D01*
X002663Y014084D01*
X002654Y014110D01*
X002648Y014137D01*
X002646Y014164D01*
X010827Y014164D02*
X010829Y014191D01*
X010835Y014218D01*
X010844Y014244D01*
X010857Y014268D01*
X010873Y014291D01*
X010892Y014310D01*
X010914Y014327D01*
X010938Y014341D01*
X010963Y014351D01*
X010990Y014358D01*
X011017Y014361D01*
X011045Y014360D01*
X011072Y014355D01*
X011098Y014347D01*
X011122Y014335D01*
X011145Y014319D01*
X011166Y014301D01*
X011183Y014280D01*
X011198Y014256D01*
X011209Y014231D01*
X011217Y014205D01*
X011221Y014178D01*
X011221Y014150D01*
X011217Y014123D01*
X011209Y014097D01*
X011198Y014072D01*
X011183Y014048D01*
X011166Y014027D01*
X011145Y014009D01*
X011123Y013993D01*
X011098Y013981D01*
X011072Y013973D01*
X011045Y013968D01*
X011017Y013967D01*
X010990Y013970D01*
X010963Y013977D01*
X010938Y013987D01*
X010914Y014001D01*
X010892Y014018D01*
X010873Y014037D01*
X010857Y014060D01*
X010844Y014084D01*
X010835Y014110D01*
X010829Y014137D01*
X010827Y014164D01*
X010827Y000771D02*
X010829Y000798D01*
X010835Y000825D01*
X010844Y000851D01*
X010857Y000875D01*
X010873Y000898D01*
X010892Y000917D01*
X010914Y000934D01*
X010938Y000948D01*
X010963Y000958D01*
X010990Y000965D01*
X011017Y000968D01*
X011045Y000967D01*
X011072Y000962D01*
X011098Y000954D01*
X011122Y000942D01*
X011145Y000926D01*
X011166Y000908D01*
X011183Y000887D01*
X011198Y000863D01*
X011209Y000838D01*
X011217Y000812D01*
X011221Y000785D01*
X011221Y000757D01*
X011217Y000730D01*
X011209Y000704D01*
X011198Y000679D01*
X011183Y000655D01*
X011166Y000634D01*
X011145Y000616D01*
X011123Y000600D01*
X011098Y000588D01*
X011072Y000580D01*
X011045Y000575D01*
X011017Y000574D01*
X010990Y000577D01*
X010963Y000584D01*
X010938Y000594D01*
X010914Y000608D01*
X010892Y000625D01*
X010873Y000644D01*
X010857Y000667D01*
X010844Y000691D01*
X010835Y000717D01*
X010829Y000744D01*
X010827Y000771D01*
X002646Y000771D02*
X002648Y000798D01*
X002654Y000825D01*
X002663Y000851D01*
X002676Y000875D01*
X002692Y000898D01*
X002711Y000917D01*
X002733Y000934D01*
X002757Y000948D01*
X002782Y000958D01*
X002809Y000965D01*
X002836Y000968D01*
X002864Y000967D01*
X002891Y000962D01*
X002917Y000954D01*
X002941Y000942D01*
X002964Y000926D01*
X002985Y000908D01*
X003002Y000887D01*
X003017Y000863D01*
X003028Y000838D01*
X003036Y000812D01*
X003040Y000785D01*
X003040Y000757D01*
X003036Y000730D01*
X003028Y000704D01*
X003017Y000679D01*
X003002Y000655D01*
X002985Y000634D01*
X002964Y000616D01*
X002942Y000600D01*
X002917Y000588D01*
X002891Y000580D01*
X002864Y000575D01*
X002836Y000574D01*
X002809Y000577D01*
X002782Y000584D01*
X002757Y000594D01*
X002733Y000608D01*
X002711Y000625D01*
X002692Y000644D01*
X002676Y000667D01*
X002663Y000691D01*
X002654Y000717D01*
X002648Y000744D01*
X002646Y000771D01*
D12*
X002593Y009704D02*
X002343Y009954D01*
X002343Y010454D01*
X002593Y010704D01*
X002343Y010954D01*
X002343Y011454D01*
X002593Y011704D01*
X002343Y011954D01*
X002343Y012454D01*
X002593Y012704D01*
X003093Y012704D01*
X003343Y012454D01*
X003343Y011954D01*
X003093Y011704D01*
X003343Y011454D01*
X003343Y010954D01*
X003093Y010704D01*
X003343Y010454D01*
X003343Y009954D01*
X003093Y009704D01*
X002593Y009704D01*
X005183Y014649D02*
X005683Y014649D01*
X005933Y014899D01*
X006183Y014649D01*
X006683Y014649D01*
X006933Y014899D01*
X007183Y014649D01*
X007683Y014649D01*
X007933Y014899D01*
X008183Y014649D01*
X008683Y014649D01*
X008933Y014899D01*
X008933Y015399D01*
X008683Y015649D01*
X008183Y015649D01*
X007933Y015399D01*
X007683Y015649D01*
X007183Y015649D01*
X006933Y015399D01*
X006683Y015649D01*
X006183Y015649D01*
X005933Y015399D01*
X005683Y015649D01*
X005183Y015649D01*
X004933Y015399D01*
X004933Y014899D01*
X005183Y014649D01*
D13*
X004808Y014924D02*
X004508Y014924D01*
X004658Y014924D02*
X004658Y015374D01*
X004508Y015224D01*
X005033Y015824D02*
X004958Y015899D01*
X005033Y015824D02*
X005183Y015824D01*
X005258Y015899D01*
X005258Y015974D01*
X005183Y016049D01*
X005033Y016049D01*
X004958Y016124D01*
X004958Y016199D01*
X005033Y016274D01*
X005183Y016274D01*
X005258Y016199D01*
X005418Y016274D02*
X005418Y015974D01*
X005569Y015824D01*
X005719Y015974D01*
X005719Y016274D01*
X005879Y016124D02*
X006029Y016274D01*
X006029Y015824D01*
X005879Y015824D02*
X006179Y015824D01*
X009058Y015149D02*
X009358Y015149D01*
X009283Y014924D02*
X009283Y015374D01*
X009058Y015149D01*
X003068Y009529D02*
X003068Y009229D01*
X003068Y009379D02*
X002617Y009379D01*
X002767Y009229D01*
X002168Y009729D02*
X002168Y010029D01*
X002092Y010189D02*
X002168Y010264D01*
X002168Y010414D01*
X002092Y010489D01*
X002017Y010489D01*
X001942Y010414D01*
X001942Y010264D01*
X001867Y010189D01*
X001792Y010189D01*
X001717Y010264D01*
X001717Y010414D01*
X001792Y010489D01*
X001867Y010649D02*
X001717Y010800D01*
X002168Y010800D01*
X002168Y010950D02*
X002168Y010649D01*
X002243Y010339D02*
X001642Y010339D01*
X001717Y010029D02*
X001717Y009729D01*
X002168Y009729D01*
X001942Y009729D02*
X001942Y009879D01*
M02*
