G75*
G70*
%OFA0B0*%
%FSLAX24Y24*%
%IPPOS*%
%LPD*%
%AMOC8*
5,1,8,0,0,1.08239X$1,22.5*
%
%ADD10C,0.0060*%
%ADD11C,0.0600*%
%ADD12C,0.0740*%
%ADD13C,0.0160*%
%ADD14R,0.0396X0.0396*%
D10*
X000809Y009659D02*
X000703Y009766D01*
X000809Y009659D02*
X001023Y009659D01*
X001130Y009766D01*
X001130Y010193D01*
X001023Y010299D01*
X000809Y010299D01*
X000703Y010193D01*
X001221Y010840D02*
X001114Y010947D01*
X001114Y011160D01*
X001328Y011160D01*
X001541Y011374D02*
X001435Y011480D01*
X001221Y011480D01*
X001114Y011374D01*
X001006Y011824D02*
X000900Y011931D01*
X000900Y012358D01*
X001006Y012465D01*
X001327Y012465D01*
X001327Y011824D01*
X001006Y011824D01*
X001544Y011824D02*
X001544Y012465D01*
X001971Y012465D02*
X001544Y011824D01*
X001758Y011480D02*
X001971Y011480D01*
X001864Y011480D02*
X001864Y010840D01*
X001758Y010840D02*
X001971Y010840D01*
X002189Y010947D02*
X002295Y010840D01*
X002509Y010840D01*
X002616Y010947D01*
X002509Y011160D02*
X002295Y011160D01*
X002189Y011053D01*
X002189Y010947D01*
X002189Y011374D02*
X002295Y011480D01*
X002509Y011480D01*
X002616Y011374D01*
X002616Y011267D01*
X002509Y011160D01*
X002509Y011824D02*
X002295Y011824D01*
X002189Y011931D01*
X002189Y012144D01*
X002402Y012144D01*
X002616Y011931D02*
X002509Y011824D01*
X002616Y011931D02*
X002616Y012358D01*
X002509Y012465D01*
X002295Y012465D01*
X002189Y012358D01*
X001971Y012465D02*
X001971Y011824D01*
X001541Y011374D02*
X001541Y010947D01*
X001435Y010840D01*
X001221Y010840D01*
X001454Y010299D02*
X001668Y010299D01*
X001774Y010193D01*
X001774Y009766D01*
X001668Y009659D01*
X001454Y009659D01*
X001347Y009766D01*
X001347Y010193D02*
X001454Y010299D01*
X001992Y010299D02*
X001992Y009872D01*
X002205Y009659D01*
X002419Y009872D01*
X002419Y010299D01*
X003369Y015958D02*
X003262Y016065D01*
X003369Y015958D02*
X003582Y015958D01*
X003689Y016065D01*
X003689Y016492D01*
X003582Y016599D01*
X003369Y016599D01*
X003262Y016492D01*
X003906Y016492D02*
X004013Y016599D01*
X004227Y016599D01*
X004333Y016492D01*
X004333Y016065D01*
X004227Y015958D01*
X004013Y015958D01*
X003906Y016065D01*
X004551Y016172D02*
X004551Y016599D01*
X004746Y016942D02*
X004640Y017049D01*
X004640Y017476D01*
X004746Y017583D01*
X005067Y017583D01*
X005067Y016942D01*
X004746Y016942D01*
X004978Y016599D02*
X004978Y016172D01*
X004764Y015958D01*
X004551Y016172D01*
X005284Y016942D02*
X005284Y017583D01*
X005711Y017583D02*
X005284Y016942D01*
X005711Y016942D02*
X005711Y017583D01*
X005929Y017476D02*
X006036Y017583D01*
X006249Y017583D01*
X006356Y017476D01*
X006356Y017049D01*
X006249Y016942D01*
X006036Y016942D01*
X005929Y017049D01*
X005929Y017263D01*
X006142Y017263D01*
X006231Y016599D02*
X006018Y016385D01*
X006018Y015958D01*
X006018Y016278D02*
X006445Y016278D01*
X006445Y016385D02*
X006231Y016599D01*
X006445Y016385D02*
X006445Y015958D01*
X006662Y016065D02*
X006662Y016492D01*
X006769Y016599D01*
X007089Y016599D01*
X007089Y015958D01*
X006769Y015958D01*
X006662Y016065D01*
X007307Y016065D02*
X007414Y015958D01*
X007627Y015958D01*
X007734Y016065D01*
X007627Y016278D02*
X007414Y016278D01*
X007307Y016172D01*
X007307Y016065D01*
X007307Y016492D02*
X007414Y016599D01*
X007627Y016599D01*
X007734Y016492D01*
X007734Y016385D01*
X007627Y016278D01*
X007626Y016745D02*
X007199Y016745D01*
X007626Y016745D02*
X007626Y017386D01*
X007843Y017279D02*
X007950Y017386D01*
X008164Y017386D01*
X008270Y017279D01*
X008270Y016852D01*
X008164Y016745D01*
X007950Y016745D01*
X007843Y016852D01*
X008488Y016852D02*
X008595Y016745D01*
X008808Y016745D01*
X008915Y016852D01*
X008808Y017066D02*
X008595Y017066D01*
X008488Y016959D01*
X008488Y016852D01*
X008808Y017066D02*
X008915Y017172D01*
X008915Y017279D01*
X008808Y017386D01*
X008595Y017386D01*
X008488Y017279D01*
D11*
X008433Y015449D02*
X008433Y014849D01*
X007433Y014849D02*
X007433Y015449D01*
X006433Y015449D02*
X006433Y014849D01*
X005433Y014849D02*
X005433Y015449D01*
X003143Y012204D02*
X002543Y012204D01*
X002543Y011204D02*
X003143Y011204D01*
X003143Y010204D02*
X002543Y010204D01*
D12*
X008783Y009017D03*
X008783Y008017D03*
X009933Y008467D03*
X009933Y009467D03*
X009933Y010467D03*
X009933Y011467D03*
X009933Y012467D03*
X009933Y007467D03*
X009933Y006467D03*
X009933Y005467D03*
X009933Y004467D03*
X009933Y003467D03*
X009933Y002467D03*
X009933Y001467D03*
D13*
X004614Y005467D02*
X004614Y011204D01*
X002843Y011204D01*
X002843Y012204D02*
X006386Y012204D01*
X006386Y012188D01*
X007433Y015149D02*
X007433Y008054D01*
X008783Y008054D01*
X008783Y008017D01*
X008783Y009017D02*
X008783Y009038D01*
X008433Y009038D01*
X008433Y015149D01*
X009933Y005467D02*
X004614Y005467D01*
D14*
X006386Y012188D03*
M02*
